<?xml version="1.0" encoding="utf-8"?>
<svg xmlns="http://www.w3.org/2000/svg" viewBox="0 0 48 48" width="144" height="144">
  <path d="M34 4c-5.514 0-10 4.432-10 9.878 0 2.35.854 4.629 2.42 6.435.167.187 4.093 4.584 5.419 5.831.605.57 1.383.855 2.16.855s1.555-.285 2.16-.854c1.54-1.448 5.266-5.657 5.434-5.847C43.146 18.508 44 16.228 44 13.878 44 8.432 39.514 4 34 4zM34 17c-1.657 0-3-1.343-3-3 0-1.657 1.343-3 3-3s3 1.343 3 3C37 15.657 35.657 17 34 17zM22.196 16C22.067 15.303 22 14.593 22 13.878c0-3.52 1.563-6.677 4.029-8.854C25.359 4.365 24.672 4 24 4c-2.473 0-5.164 4.792-6.362 12H22.196zM23.183 19h-5.931C17.095 20.59 17 22.256 17 24s.095 3.41.252 5h13.496c.034-.34.053-.697.079-1.046-2.126-2.198-5.867-6.273-5.901-6.311C24.223 20.833 23.64 19.943 23.183 19zM14 24c0-1.666.082-3.345.237-5h-9.6C4.223 20.599 4 22.273 4 24s.223 3.401.637 5h9.6C14.082 27.345 14 25.666 14 24zM18.289 4.841C12.632 6.531 8.018 10.659 5.674 16h8.93C15.281 11.61 16.521 7.606 18.289 4.841zM29.711 43.159c5.657-1.69 10.271-5.817 12.615-11.159h-8.93C32.719 36.39 31.479 40.394 29.711 43.159zM5.674 32c2.344 5.341 6.958 9.469 12.615 11.159C16.521 40.394 15.281 36.39 14.604 32H5.674zM44 24c0-1.086-.098-2.148-.266-3.187-.198.272-.407.538-.629.794-.04.045-4.38 4.709-6.98 7.393h7.238C43.777 27.401 44 25.727 44 24zM17.638 32c1.198 7.208 3.89 12 6.362 12s5.164-4.792 6.362-12H17.638z" fill="#FFFFFF" />
</svg>